<svg width="90" height="90" viewBox="0 0 90 90" fill="none" xmlns="http://www.w3.org/2000/svg">
<path d="M5.625 34.1249C5.625 24.1491 5.625 19.1611 7.56644 15.3508C9.27419 11.9992 11.9992 9.27419 15.3508 7.56644C19.1611 5.625 24.1491 5.625 34.1249 5.625H55.8751C65.851 5.625 70.839 5.625 74.6491 7.56644C78.0008 9.27419 80.7258 11.9992 82.4335 15.3508C84.375 19.1611 84.375 24.1491 84.375 34.1249V55.8751C84.375 65.851 84.375 70.839 82.4335 74.6491C80.7258 78.0008 78.0008 80.7258 74.6491 82.4335C70.839 84.375 65.851 84.375 55.8751 84.375H34.1249C24.1491 84.375 19.1611 84.375 15.3508 82.4335C11.9992 80.7258 9.27419 78.0008 7.56644 74.6491C5.625 70.839 5.625 65.851 5.625 55.8751V34.1249Z" fill="#001E36"/>
<path d="M22.5 63.3268V28.6971C22.5 28.4617 22.5984 28.3269 22.8281 28.3269C26.219 28.3269 29.6083 28.125 32.9999 28.125C38.5037 28.125 44.4628 30.0068 46.5517 35.7643C47.0438 37.1779 47.3062 38.6249 47.3062 40.1394C47.3062 43.0338 46.6501 45.423 45.3375 47.3077C41.6711 52.5721 35.3166 52.4903 29.6204 52.4903V63.2933C29.6648 63.6131 29.3923 63.7644 29.1282 63.7644H22.8938C22.6313 63.7644 22.5 63.6297 22.5 63.3268ZM29.653 34.8221V46.1298C31.9117 46.2952 34.2751 46.3132 36.4452 45.5915C38.8412 44.9002 40.1532 42.8265 40.1532 40.3414C40.2196 38.2238 39.0659 36.1921 37.1017 35.4279C34.9577 34.5364 31.9674 34.4829 29.653 34.8221Z" fill="#31A8FF"/>
<path d="M67.772 43.8958C66.7792 43.3724 65.7217 42.9896 64.6284 42.7579C63.2239 42.4274 57.6838 41.2698 57.6816 44.1667C57.7308 45.7838 60.298 46.5761 61.4323 47.0382C65.4145 48.4054 69.9207 50.8492 69.8321 55.7618C69.9539 61.8773 64.0285 64.3222 58.9494 64.3227C56.3054 64.35 53.5508 63.9405 51.131 62.8054C50.8998 62.683 50.7513 62.4218 50.7611 62.1551V56.3034C50.735 56.0689 50.987 55.8638 51.1838 56.0326C53.5548 57.4664 56.365 58.1628 59.1081 58.1999C60.3188 58.1999 62.7185 58.0826 62.7005 56.3034C62.7005 54.5962 59.8298 53.8113 58.6853 53.3776C57.0265 52.7856 55.4538 51.9652 54.0101 50.9394C51.9924 49.5003 50.7268 47.1929 50.7611 44.6543C50.7493 38.896 56.2036 36.3113 61.1156 36.3102C63.4117 36.2911 65.8778 36.4613 68.0153 37.3939C68.3227 37.4842 68.3862 37.8082 68.3851 38.0981V43.5707C68.4045 43.9104 68.0273 44.026 67.772 43.8958Z" fill="#31A8FF"/>
</svg>
