<svg width="90" height="90" viewBox="0 0 90 90" fill="none" xmlns="http://www.w3.org/2000/svg">
<path d="M5.625 34.1249C5.625 24.1491 5.625 19.1611 7.56644 15.3508C9.27419 11.9992 11.9992 9.27419 15.3508 7.56644C19.1611 5.625 24.1491 5.625 34.1249 5.625H55.8751C65.851 5.625 70.839 5.625 74.6491 7.56644C78.0008 9.27419 80.7258 11.9992 82.4335 15.3508C84.375 19.1611 84.375 24.1491 84.375 34.1249V55.8751C84.375 65.851 84.375 70.839 82.4335 74.6491C80.7258 78.0008 78.0008 80.7258 74.6491 82.4335C70.839 84.375 65.851 84.375 55.8751 84.375H34.1249C24.1491 84.375 19.1611 84.375 15.3508 82.4335C11.9992 80.7258 9.27419 78.0008 7.56644 74.6491C5.625 70.839 5.625 65.851 5.625 55.8751V34.1249Z" fill="#00005B"/>
<path d="M38.7824 55.0233H26.5792L24.0963 62.9492C24.0274 63.2431 23.7568 63.4512 23.4624 63.4368H17.2815C16.9291 63.4368 16.8058 63.2383 16.9117 62.8409L27.4772 31.7605C27.583 31.4357 27.6886 31.1178 27.7943 30.7022C27.9325 29.9791 28.0033 29.2444 28.0056 28.5078C27.9754 28.2902 28.1632 28.0973 28.3753 28.1284H36.7751C37.0212 28.1284 37.1618 28.2187 37.1976 28.3993L49.1898 62.8949C49.2952 63.2566 49.1895 63.4371 48.8728 63.4368H42.005C41.7642 63.4641 41.5342 63.299 41.4768 63.0574L38.7824 55.0233ZM28.4811 48.3405H36.828C35.4566 43.6543 33.9089 39.03 32.6545 34.3072C31.2331 39.206 29.9205 43.7493 28.4811 48.3405Z" fill="#9999FF"/>
<path d="M58.1085 51.9629C58.5942 55.9873 61.9737 57.906 65.7157 57.8241C67.826 57.7828 70.081 57.4551 72.0529 56.6572C72.2284 56.5135 72.317 56.6032 72.317 56.9283V62.0755C72.3336 62.3432 72.2216 62.5826 72 62.7257C69.5492 63.8389 66.7361 64.1747 64.078 64.132C56.153 64.132 50.7105 58.548 50.7127 50.4239C50.6919 42.7249 55.6866 36.2297 63.4441 36.2297C70.02 36.0593 74.5726 41.324 74.5909 47.8774C74.5909 49.0708 74.5242 50.2686 74.3796 51.4532C74.3515 51.6974 74.1437 51.8869 73.9041 51.8869C68.6523 51.8869 63.3749 51.9629 58.1085 51.9629ZM58.1085 47.0269C61.0355 47.0269 63.9793 47.1304 66.9043 46.9999C67.3439 46.9549 67.6704 46.8714 67.6704 46.4144C67.6094 43.9849 65.5591 41.9866 63.18 42.0797C60.3056 41.9014 58.466 44.328 58.1085 47.0269Z" fill="#9999FF"/>
</svg>
