<svg width="90" height="90" viewBox="0 0 90 90" fill="none" xmlns="http://www.w3.org/2000/svg">
<path d="M5.625 34.1249C5.625 24.1491 5.625 19.1611 7.56644 15.3508C9.27419 11.9992 11.9992 9.27419 15.3508 7.56644C19.1611 5.625 24.1491 5.625 34.1249 5.625H55.8751C65.851 5.625 70.839 5.625 74.6491 7.56644C78.0007 9.27419 80.7258 11.9992 82.4335 15.3508C84.375 19.1611 84.375 24.1491 84.375 34.1249V55.8751C84.375 65.851 84.375 70.839 82.4335 74.6491C80.7258 78.0007 78.0007 80.7258 74.6491 82.4335C70.839 84.375 65.851 84.375 55.8751 84.375H34.1249C24.1491 84.375 19.1611 84.375 15.3508 82.4335C11.9992 80.7258 9.27419 78.0007 7.56644 74.6491C5.625 70.839 5.625 65.851 5.625 55.8751V34.1249Z" fill="#330000"/>
<path d="M43.7867 55.1146H31.5835L29.1006 63.0253C29.0317 63.3192 28.7612 63.5273 28.4667 63.5127H22.2858C21.9333 63.5127 21.8101 63.3141 21.916 62.9167L32.4816 31.7075C32.5873 31.3824 32.6931 31.0123 32.7985 30.5969C32.9369 29.8738 33.0075 29.1391 33.01 28.4026C32.9796 28.1849 33.1709 27.9926 33.3796 28.0231H41.7794C42.0255 28.0231 42.1661 28.1134 42.2018 28.294L54.194 62.971C54.2995 63.3324 54.194 63.513 53.8771 63.5127H47.0092C46.7685 63.5402 46.5384 63.3751 46.4811 63.1336L43.7867 55.1146ZM33.4853 48.2875H41.8323C40.4609 43.6013 38.9132 38.9767 37.6588 34.2542C36.3054 38.9849 34.8289 43.6964 33.4853 48.2875Z" fill="#FF9A00"/>
<path d="M61.3252 33.7663C60.7863 33.7885 60.2491 33.6938 59.7482 33.4884C59.2476 33.2831 58.7948 32.9715 58.4196 32.5744C58.0455 32.1598 57.7547 31.6738 57.5643 31.1437C57.3739 30.6138 57.2875 30.0504 57.31 29.486C57.2909 28.9271 57.3868 28.3705 57.5916 27.8523C57.7966 27.3342 58.1057 26.8661 58.4989 26.4788C58.8881 26.0955 59.3477 25.7952 59.8511 25.5952C60.3543 25.3953 60.8912 25.2997 61.4306 25.3139C62.6988 25.3139 63.6936 25.7022 64.4155 26.4788C64.78 26.8824 65.0633 27.3557 65.2492 27.8717C65.4348 28.3877 65.5197 28.9364 65.4984 29.486C65.5206 30.0524 65.4314 30.618 65.2362 31.1484C65.0413 31.6789 64.744 32.1638 64.3627 32.5744C63.9641 32.9774 63.4883 33.2913 62.9657 33.4966C62.4429 33.7016 61.8843 33.7936 61.3252 33.7663ZM57.6799 62.9708V37.0716C57.6799 36.7464 57.8202 36.5839 58.1026 36.5839H64.6006C64.8819 36.5839 65.0228 36.7464 65.023 37.0716V62.9708C65.023 63.3324 64.8821 63.513 64.6006 63.5127H58.1555C57.8385 63.5127 57.6799 63.3322 57.6799 62.9708Z" fill="#FF9A00"/>
</svg>
