<svg width="60" height="60" viewBox="0 0 60 60" fill="none" xmlns="http://www.w3.org/2000/svg">
<g clip-path="url(#clip0_3_126)">
<path d="M53.3333 10H6.66668C5.78262 10 4.93478 10.3512 4.30965 10.9763C3.68453 11.6014 3.33334 12.4493 3.33334 13.3333V46.6667C3.33334 47.5507 3.68453 48.3986 4.30965 49.0237C4.93478 49.6488 5.78262 50 6.66668 50H53.3333C54.2174 50 55.0652 49.6488 55.6904 49.0237C56.3155 48.3986 56.6667 47.5507 56.6667 46.6667V13.3333C56.6667 12.4493 56.3155 11.6014 55.6904 10.9763C55.0652 10.3512 54.2174 10 53.3333 10ZM53.3333 46.6667H6.66668V13.3333H53.3333V46.6667Z" fill="white"/>
<path d="M10.35 19.1667C11.5006 19.1667 12.4333 18.2339 12.4333 17.0833C12.4333 15.9327 11.5006 15 10.35 15C9.1994 15 8.26666 15.9327 8.26666 17.0833C8.26666 18.2339 9.1994 19.1667 10.35 19.1667Z" fill="white"/>
<path d="M49.6833 19.1667C50.8339 19.1667 51.7667 18.2339 51.7667 17.0833C51.7667 15.9327 50.8339 15 49.6833 15C48.5327 15 47.6 15.9327 47.6 17.0833C47.6 18.2339 48.5327 19.1667 49.6833 19.1667Z" fill="white"/>
<path d="M10.35 44.45C11.5006 44.45 12.4333 43.5173 12.4333 42.3667C12.4333 41.2161 11.5006 40.2833 10.35 40.2833C9.1994 40.2833 8.26666 41.2161 8.26666 42.3667C8.26666 43.5173 9.1994 44.45 10.35 44.45Z" fill="white"/>
<path d="M49.6833 44.45C50.8339 44.45 51.7667 43.5173 51.7667 42.3667C51.7667 41.2161 50.8339 40.2833 49.6833 40.2833C48.5327 40.2833 47.6 41.2161 47.6 42.3667C47.6 43.5173 48.5327 44.45 49.6833 44.45Z" fill="white"/>
<path d="M16.6667 31.0333C18.8667 31.55 19.85 31.9333 19.85 33.0667C19.85 34.2 18.9667 34.8833 17.2667 34.8833C15.5814 34.8598 13.9676 34.1988 12.75 33.0333L11.3167 34.8C12.9064 36.2807 15.0114 37.082 17.1833 37.0333C20.5167 37.0333 22.35 35.3667 22.35 32.8333C22.35 30.3 20.4333 29.4167 17.5667 28.7667C15.3833 28.2667 14.3667 27.8667 14.3667 26.75C14.4493 26.2175 14.735 25.7376 15.1639 25.4113C15.5928 25.085 16.1314 24.9376 16.6667 25C18.141 25.0623 19.5434 25.654 20.6167 26.6667L21.9667 24.8333C20.5245 23.5055 18.6268 22.7834 16.6667 22.8167C13.7667 22.8167 11.6667 24.5667 11.6667 26.9667C11.6667 29.3667 13.7667 30.3667 16.6667 31.0333Z" fill="white"/>
<path d="M29.7167 34.8833C28.0314 34.8598 26.4176 34.1988 25.2 33.0333L23.7667 34.8C25.3564 36.2807 27.4614 37.082 29.6333 37.0333C32.9667 37.0333 34.8 35.3667 34.8 32.8333C34.8 30.3 32.8833 29.4167 30 28.7667C27.8167 28.2667 26.8 27.8667 26.8 26.75C26.8825 26.211 27.1731 25.7258 27.6093 25.3986C28.0456 25.0714 28.5927 24.9283 29.1333 25C30.6076 25.0623 32.01 25.654 33.0833 26.6667L34.4333 24.8333C33.003 23.5627 31.1461 22.8783 29.2333 22.9167C26.35 22.9167 24.2333 24.6667 24.2333 27.0667C24.2333 29.4667 26.2167 30.4 29.05 31.1333C31.25 31.65 32.2333 32.0333 32.2333 33.1667C32.2333 34.3 31.4167 34.8833 29.7167 34.8833Z" fill="white"/>
<path d="M49.8333 30C49.8333 25.9833 46.6333 23.1333 42.1 23.1333H37.2667V36.8667H42.1C46.6667 36.8 49.8333 33.95 49.8333 30ZM39.8333 25.4H42.4333C43.0618 25.3622 43.6914 25.4533 44.2833 25.6678C44.8753 25.8823 45.4171 26.2156 45.8755 26.6473C46.3339 27.0789 46.6992 27.5997 46.9488 28.1777C47.1985 28.7557 47.3273 29.3787 47.3273 30.0083C47.3273 30.638 47.1985 31.2609 46.9488 31.8389C46.6992 32.4169 46.3339 32.9378 45.8755 33.3694C45.4171 33.801 44.8753 34.1343 44.2833 34.3488C43.6914 34.5633 43.0618 34.6545 42.4333 34.6167H39.7667L39.8333 25.4Z" fill="white"/>
</g>
<defs>
<clipPath id="clip0_3_126">
<rect width="60" height="60" fill="white"/>
</clipPath>
</defs>
</svg>
