<svg width="60" height="60" viewBox="0 0 60 60" fill="none" xmlns="http://www.w3.org/2000/svg">
<path d="M56.2504 15H5.625C5.625 12.4153 3.52219 10.3125 0.9375 10.3125C0.419766 10.3125 0 10.7323 0 11.25C0 11.7677 0.419766 12.1875 0.9375 12.1875C2.48836 12.1875 3.75 13.4491 3.75 15V48.75C3.75 49.2677 4.16977 49.6875 4.6875 49.6875C5.20523 49.6875 5.625 49.2677 5.625 48.75V47.8125H7.50117C9.05133 47.8125 10.3125 46.5513 10.3125 45.0012V45H56.2504C58.3179 45 60 43.3179 60 41.2504V18.7496C60 16.6821 58.3179 15 56.2504 15ZM58.125 41.2504C58.125 42.2841 57.2841 43.125 56.2504 43.125H9.375C8.85727 43.125 8.4375 43.5448 8.4375 44.0625V45.0012C8.4375 45.5175 8.0175 45.9375 7.50117 45.9375H5.625V16.875H56.2504C57.2841 16.875 58.125 17.7159 58.125 18.7496V41.2504Z" fill="white"/>
<path d="M28.125 22.5C25.4388 22.5 23.0793 23.9203 21.7543 26.0484C21.6625 26.1479 21.5927 26.2659 21.5508 26.3946C20.9613 27.4652 20.625 28.6939 20.625 30C20.625 31.3366 20.9781 32.5916 21.5934 33.6796C21.6154 33.7262 21.6411 33.7707 21.6703 33.8132C22.9779 36.018 25.3812 37.5 28.125 37.5C32.2605 37.5 35.625 34.1355 35.625 30C35.625 28.6634 35.2719 27.4084 34.6566 26.3204C34.6346 26.2738 34.6089 26.2293 34.5797 26.1868C33.2721 23.982 30.8688 22.5 28.125 22.5ZM22.5 30C22.5 29.485 22.5709 28.9866 22.7012 28.5123C23.1226 28.8847 23.6918 29.301 24.4631 29.7463C25.2103 30.1777 25.8391 30.4586 26.3625 30.6383C26.0552 30.8798 25.6609 31.1522 25.1662 31.4377C24.1761 32.0093 23.43 32.2625 23.0147 32.3461C22.6852 31.6315 22.5 30.8372 22.5 30ZM33.75 30C33.75 30.4808 33.6891 30.9477 33.575 31.3935C33.1512 31.0153 32.574 30.591 31.7869 30.1365C31.0884 29.7333 30.4936 29.4618 29.9914 29.2813C30.2824 29.0604 30.6435 28.8165 31.0837 28.5623C32.0736 27.9909 32.82 27.7375 33.2353 27.6539C33.5648 28.3685 33.75 29.1628 33.75 30ZM32.1033 26.0272C31.5687 26.2058 30.9212 26.4913 30.1464 26.9386C29.4137 27.3616 28.8629 27.7586 28.4483 28.1164C28.3957 27.7362 28.3594 27.2715 28.3594 26.7188C28.3594 25.5746 28.5134 24.8014 28.6487 24.4002C29.9923 24.5249 31.2005 25.1231 32.1033 26.0272ZM26.6741 24.5657C26.5611 25.1184 26.4844 25.8227 26.4844 26.7188C26.4844 27.5456 26.5496 28.2095 26.6486 28.7414C26.2944 28.597 25.8763 28.3971 25.4005 28.1224C24.4276 27.5607 23.8384 27.0491 23.5526 26.7299C24.3019 25.6852 25.3991 24.9064 26.6741 24.5657ZM24.1464 33.9724C24.6812 33.7938 25.3283 33.5091 26.1036 33.0614C26.8363 32.6384 27.3871 32.2414 27.8017 31.8836C27.8543 32.2638 27.8906 32.7285 27.8906 33.2812C27.8906 34.4254 27.7366 35.1986 27.6013 35.5998C26.2576 35.4751 25.0492 34.8768 24.1464 33.9724ZM29.5759 35.4343C29.6889 34.8816 29.7656 34.1773 29.7656 33.2812C29.7656 32.3868 29.6891 31.6834 29.5765 31.1312C29.9358 31.2762 30.3626 31.4793 30.8495 31.7603C31.8765 32.3532 32.4775 32.8914 32.7436 33.2052C31.9936 34.2827 30.8773 35.0865 29.5759 35.4343Z" fill="white"/>
<path d="M51.5625 19.6875C51.0448 19.6875 50.625 20.1073 50.625 20.625C50.625 21.1427 51.0448 21.5625 51.5625 21.5625C52.5963 21.5625 53.4375 22.4037 53.4375 23.4375V36.5625C53.4375 37.5963 52.5963 38.4375 51.5625 38.4375H28.125C23.4725 38.4375 19.6875 34.6525 19.6875 30C19.6875 25.3475 23.4725 21.5625 28.125 21.5625H47.8125C48.3302 21.5625 48.75 21.1427 48.75 20.625C48.75 20.1073 48.3302 19.6875 47.8125 19.6875H28.125C22.4387 19.6875 17.8125 24.3137 17.8125 30C17.8125 35.6863 22.4387 40.3125 28.125 40.3125H51.5625C53.6303 40.3125 55.3125 38.6303 55.3125 36.5625V23.4375C55.3125 21.3697 53.6303 19.6875 51.5625 19.6875Z" fill="white"/>
<path d="M13.125 27.1875H10.3125C9.27867 27.1875 8.4375 28.0287 8.4375 29.0625V30.9375C8.4375 31.9713 9.27867 32.8125 10.3125 32.8125H13.125C14.1588 32.8125 15 31.9713 15 30.9375V29.0625C15 28.0287 14.1588 27.1875 13.125 27.1875ZM10.3125 30.9375V29.0625H13.125L13.1251 30.9375H10.3125Z" fill="white"/>
<path d="M13.125 20.625H10.3125C9.27867 20.625 8.4375 21.4662 8.4375 22.5V24.375C8.4375 25.4088 9.27867 26.25 10.3125 26.25H13.125C14.1588 26.25 15 25.4088 15 24.375V22.5C15 21.4662 14.1588 20.625 13.125 20.625ZM10.3125 24.375V22.5H13.125L13.1251 24.375H10.3125Z" fill="white"/>
<path d="M13.125 33.75H10.3125C9.27867 33.75 8.4375 34.5912 8.4375 35.625V37.5C8.4375 38.5338 9.27867 39.375 10.3125 39.375H13.125C14.1588 39.375 15 38.5338 15 37.5V35.625C15 34.5912 14.1588 33.75 13.125 33.75ZM10.3125 37.5V35.625H13.125L13.1251 37.5H10.3125Z" fill="white"/>
<path d="M50.625 23.4375H47.8125C47.2948 23.4375 46.875 23.8573 46.875 24.375C46.875 24.8927 47.2948 25.3125 47.8125 25.3125H50.625C51.1427 25.3125 51.5625 24.8927 51.5625 24.375C51.5625 23.8573 51.1427 23.4375 50.625 23.4375Z" fill="white"/>
<path d="M50.625 34.6875H47.8125C47.2948 34.6875 46.875 35.1073 46.875 35.625C46.875 36.1427 47.2948 36.5625 47.8125 36.5625H50.625C51.1427 36.5625 51.5625 36.1427 51.5625 35.625C51.5625 35.1073 51.1427 34.6875 50.625 34.6875Z" fill="white"/>
<path d="M50.625 26.25H47.8125C47.2948 26.25 46.875 26.6698 46.875 27.1875C46.875 27.7052 47.2948 28.125 47.8125 28.125H50.625C51.1427 28.125 51.5625 27.7052 51.5625 27.1875C51.5625 26.6698 51.1427 26.25 50.625 26.25Z" fill="white"/>
<path d="M50.625 29.0625H47.8125C47.2948 29.0625 46.875 29.4823 46.875 30C46.875 30.5177 47.2948 30.9375 47.8125 30.9375H50.625C51.1427 30.9375 51.5625 30.5177 51.5625 30C51.5625 29.4823 51.1427 29.0625 50.625 29.0625Z" fill="white"/>
<path d="M50.625 31.875H47.8125C47.2948 31.875 46.875 32.2948 46.875 32.8125C46.875 33.3302 47.2948 33.75 47.8125 33.75H50.625C51.1427 33.75 51.5625 33.3302 51.5625 32.8125C51.5625 32.2948 51.1427 31.875 50.625 31.875Z" fill="white"/>
</svg>
