<svg width="40" height="40" viewBox="0 0 40 40" fill="none" xmlns="http://www.w3.org/2000/svg">
<path d="M29.7926 29.275C29.1173 29.2765 28.4485 29.1443 27.8246 28.886C27.2007 28.6277 26.6342 28.2484 26.1576 27.77L20.9076 22.52C20.7217 22.3435 20.4752 22.245 20.2188 22.245C19.9625 22.245 19.7159 22.3435 19.5301 22.52L14.2601 27.79C13.7837 28.2686 13.2172 28.648 12.5932 28.9064C11.9693 29.1647 11.3004 29.2968 10.6251 29.295H9.59009L16.2401 35.945C18.3151 38.02 21.6826 38.02 23.7576 35.945L30.4251 29.275H29.7926ZM10.6251 10.705C12.0001 10.705 13.2901 11.24 14.2601 12.21L19.5301 17.48C19.6206 17.5707 19.7282 17.6427 19.8466 17.6918C19.965 17.7409 20.0919 17.7662 20.2201 17.7662C20.3483 17.7662 20.4752 17.7409 20.5936 17.6918C20.712 17.6427 20.8195 17.5707 20.9101 17.48L26.1601 12.23C26.6362 11.7517 27.2023 11.3725 27.8258 11.1141C28.4493 10.8558 29.1177 10.7236 29.7926 10.725H30.4251L23.7576 4.05751C22.7605 3.06108 21.4085 2.50134 19.9988 2.50134C18.5892 2.50134 17.2372 3.06108 16.2401 4.05751L9.59009 10.7075L10.6251 10.705Z" fill="#0B4E83"/>
<path d="M35.9425 16.24L31.9125 12.21C31.822 12.2472 31.7253 12.2667 31.6275 12.2675H29.795C28.8475 12.2675 27.92 12.6525 27.2525 13.3225L22.0025 18.5725C21.769 18.8072 21.4914 18.9935 21.1857 19.1205C20.8801 19.2476 20.5523 19.3131 20.2212 19.3131C19.8902 19.3131 19.5624 19.2476 19.2567 19.1205C18.951 18.9935 18.6734 18.8072 18.44 18.5725L13.17 13.3C12.4938 12.6267 11.5792 12.2475 10.625 12.245H8.37497C8.2817 12.2443 8.18934 12.2265 8.10247 12.1925L4.05747 16.24C1.98247 18.315 1.98247 21.6825 4.05747 23.76L8.10247 27.805C8.18838 27.7704 8.27988 27.7518 8.37247 27.75H10.625C11.575 27.75 12.5 27.3675 13.17 26.6975L18.4375 21.425C18.9181 20.9674 19.5563 20.7121 20.22 20.7121C20.8836 20.7121 21.5218 20.9674 22.0025 21.425L27.2525 26.675C27.92 27.345 28.8475 27.7275 29.795 27.7275H31.6275C31.7275 27.7275 31.825 27.7525 31.9125 27.7875L35.9425 23.7575C38.0175 21.6825 38.0175 18.315 35.9425 16.24Z" fill="#0B4E83"/>
</svg>
